<?xml version="1.0" encoding="UTF-8"?><svg id="Calque_2" xmlns="http://www.w3.org/2000/svg" xmlns:xlink="http://www.w3.org/1999/xlink" viewBox="0 0 173.61 318.18"><defs><linearGradient id="Dégradé_sans_nom" x1="46.32" y1="254.93" x2="140.98" y2="34.67" gradientTransform="translate(0 319.97) scale(1 -1)" gradientUnits="userSpaceOnUse"><stop offset="0" stop-color="#fff"/><stop offset=".14" stop-color="#fbfbfb"/><stop offset=".27" stop-color="#efefef"/><stop offset=".4" stop-color="#dbdbdb"/><stop offset=".54" stop-color="silver"/><stop offset=".67" stop-color="#9c9c9c"/><stop offset=".8" stop-color="#717171"/><stop offset=".93" stop-color="#3e3e3e"/><stop offset="1" stop-color="#1e1e1e"/></linearGradient></defs><path d="m159.09,86.78v144.61c0,1.03-.02,2.05-.06,3.08-.08,1.85-.23,3.69-.44,5.5-.22,1.85-.51,3.68-.87,5.48-.7,3.57-1.67,7.05-2.88,10.42-.36.99-.73,1.96-1.13,2.93-1,2.45-2.14,4.83-3.4,7.14-2.05,3.76-4.42,7.32-7.08,10.64-.21.26-.42.52-.64.77-.82.99-1.65,1.96-2.53,2.9-1.37,1.51-2.81,2.95-4.31,4.33-3.13,2.9-6.52,5.51-10.13,7.81-2.66,1.7-5.43,3.22-8.31,4.57-3.71,1.73-7.59,3.15-11.61,4.24-2.98.8-6.02,1.42-9.14,1.84-2.37.33-4.78.53-7.22.62-.31.01-.63.02-.94.03h-.04c-.53,0-1.06.01-1.6.01h-1.45c-.35-.01-.69-.02-1.04-.04-3.17-.11-6.29-.42-9.34-.92-4.19-.69-8.25-1.74-12.17-3.11-3.08-1.09-6.07-2.37-8.94-3.85-3.97-2.03-7.73-4.42-11.23-7.14-1.89-1.46-3.7-3-5.43-4.63-.82-.77-1.61-1.56-2.39-2.37-1.56-1.61-3.05-3.3-4.45-5.05-1.73-2.16-3.34-4.42-4.81-6.78-1.76-2.78-3.32-5.7-4.69-8.73-.36-.79-.7-1.58-1.02-2.38-1.51-3.69-2.72-7.54-3.6-11.52-.65-2.9-1.12-5.87-1.41-8.89-.04-.44-.08-.88-.11-1.33-.14-1.83-.21-3.69-.21-5.56V86.78c0-.57,0-1.14.02-1.71.01-.58.04-1.16.06-1.74.05-1.11.13-2.22.23-3.31.04-.55.1-1.09.17-1.63.11-1.06.26-2.11.43-3.15.08-.51.16-1.02.26-1.53.18-1.01.38-2,.62-3,.1-.48.21-.95.33-1.42.23-.96.49-1.91.77-2.85.12-.45.26-.89.4-1.33.28-.91.59-1.81.92-2.71.13-.42.29-.83.45-1.24.32-.87.66-1.72,1.02-2.56.16-.39.33-.77.5-1.15.36-.82.74-1.64,1.14-2.44.17-.36.36-.72.53-1.09.4-.78.82-1.56,1.24-2.32.18-.34.38-.68.58-1.02.43-.75.87-1.48,1.34-2.21.2-.32.4-.64.61-.96.45-.71.93-1.41,1.42-2.1.21-.31.42-.6.64-.9.49-.68.99-1.35,1.51-2.01.21-.29.44-.58.67-.86.44-.55.89-1.11,1.37-1.65.07-.09.14-.18.22-.26.23-.28.46-.55.71-.82.55-.63,1.11-1.24,1.68-1.83.25-.26.5-.53.76-.78.58-.6,1.16-1.18,1.76-1.75.26-.26.53-.5.8-.75.61-.58,1.24-1.13,1.86-1.68.28-.24.56-.48.85-.71.65-.55,1.3-1.07,1.96-1.59.3-.23.6-.46.89-.69.68-.52,1.38-1.02,2.08-1.51.31-.23.63-.44.95-.66.72-.49,1.46-.97,2.19-1.42.34-.22.68-.43,1.02-.63.76-.47,1.53-.92,2.32-1.34.36-.21.72-.4,1.09-.6.81-.43,1.63-.85,2.45-1.24.39-.2.78-.38,1.18-.56.86-.4,1.73-.77,2.6-1.14.42-.18.84-.35,1.26-.51.91-.36,1.82-.7,2.75-1.01.45-.16.91-.32,1.37-.45.96-.32,1.93-.62,2.91-.88.49-.14.98-.27,1.48-.4,1.02-.26,2.04-.5,3.08-.71.53-.11,1.06-.21,1.59-.31.76-.15,1.53-.28,2.31-.39.31-.05.62-.09.92-.13.57-.09,1.14-.16,1.71-.21,1.13-.13,2.27-.24,3.41-.31.6-.05,1.21-.09,1.83-.11,1.01-.04,2.02-.06,3.04-.06h.53c.65,0,1.31.01,1.95.04,1.25.04,2.49.11,3.71.23.7.05,1.38.12,2.07.21,1.29.14,2.57.32,3.84.54.67.11,1.33.23,2,.36.06.01.12.02.18.04,1.32.26,2.64.57,3.93.91.75.19,1.51.4,2.25.63,1.35.39,2.68.82,3.99,1.3.78.28,1.55.57,2.32.88,1.36.53,2.69,1.12,4,1.74.79.36,1.57.75,2.34,1.15,1.34.68,2.65,1.41,3.93,2.19.79.47,1.56.94,2.32,1.45,1.31.85,2.58,1.73,3.83,2.66.76.57,1.51,1.16,2.25,1.76,1.24,1,2.46,2.05,3.63,3.14.7.63,1.38,1.29,2.05,1.96l.11.11c1.16,1.16,2.27,2.37,3.35,3.6.67.78,1.34,1.58,1.98,2.39,1.05,1.31,2.05,2.67,3,4.06.61.88,1.2,1.78,1.76,2.68.92,1.46,1.78,2.94,2.58,4.47.52.97,1.02,1.95,1.48,2.95.75,1.58,1.44,3.19,2.07,4.83.41,1.05.8,2.12,1.15,3.2.57,1.68,1.07,3.4,1.5,5.13.28,1.12.54,2.25.77,3.39.36,1.76.65,3.54.87,5.35.15,1.16.26,2.34.35,3.52.13,1.8.21,3.62.21,5.45h.06Z" fill="url(#Dégradé_sans_nom)"/><path d="m172.59,80.03v158.1c0,1.13-.03,2.24-.08,3.36-.09,2.03-.27,4.03-.52,6.02-.26,2.03-.61,4.02-1.03,5.99-.83,3.91-1.98,7.71-3.42,11.39-.42,1.08-.87,2.14-1.34,3.2-1.19,2.68-2.54,5.28-4.03,7.8-2.43,4.12-5.24,8.01-8.4,11.63-.24.29-.5.57-.76.85-.97,1.09-1.96,2.14-3,3.18-1.63,1.65-3.34,3.22-5.12,4.73-3.72,3.17-7.74,6.03-12.02,8.53-3.15,1.86-6.45,3.53-9.86,4.99-4.4,1.89-9,3.45-13.77,4.64-3.53.88-7.15,1.55-10.85,2.01-2.81.36-5.67.58-8.56.68-.37.02-.74.02-1.11.03h-.04c-.63,0-1.26.02-1.9.02h-1.73c-.41-.02-.82-.02-1.23-.04-3.76-.12-7.46-.46-11.08-1.01-4.97-.75-9.79-1.9-14.44-3.4-3.66-1.19-7.2-2.59-10.61-4.21-4.71-2.22-9.17-4.83-13.32-7.8-2.24-1.59-4.39-3.28-6.45-5.06-.97-.85-1.91-1.71-2.84-2.59-1.85-1.76-3.62-3.6-5.28-5.52-2.06-2.36-3.96-4.83-5.71-7.41-2.09-3.04-3.94-6.24-5.56-9.54-.42-.86-.83-1.72-1.21-2.6-1.8-4.04-3.23-8.25-4.27-12.6-.77-3.17-1.33-6.41-1.67-9.72-.05-.48-.09-.96-.13-1.45-.17-2-.25-4.04-.25-6.08V80.03c0-.62,0-1.25.03-1.87.02-.64.04-1.27.08-1.9.06-1.21.15-2.42.28-3.62.05-.6.12-1.19.2-1.78.13-1.16.3-2.31.51-3.45.09-.56.19-1.12.3-1.67.22-1.1.46-2.19.73-3.28.12-.52.25-1.04.4-1.55.28-1.05.58-2.09.92-3.11.14-.49.3-.97.47-1.45.34-.99.7-1.98,1.09-2.96.16-.46.35-.91.54-1.35.38-.95.78-1.88,1.21-2.8.19-.43.39-.84.59-1.26.43-.9.88-1.79,1.36-2.67.2-.4.42-.79.63-1.19.48-.85.97-1.7,1.47-2.53.22-.37.46-.75.68-1.11.51-.82,1.04-1.62,1.58-2.42.24-.35.48-.7.72-1.05.54-.78,1.1-1.54,1.69-2.29.24-.33.5-.66.76-.99.58-.75,1.17-1.48,1.8-2.2.25-.32.52-.63.8-.94.52-.61,1.06-1.21,1.63-1.8.08-.09.17-.19.26-.29.27-.3.55-.6.84-.89.65-.68,1.31-1.35,1.99-2,.29-.29.59-.57.9-.85.68-.65,1.38-1.29,2.09-1.91.31-.28.63-.55.95-.82.72-.63,1.47-1.23,2.21-1.83.34-.26.67-.53,1-.78.77-.6,1.54-1.17,2.33-1.74.35-.26.71-.5,1.06-.75.81-.57,1.64-1.12,2.47-1.65.37-.25.75-.48,1.13-.72.86-.54,1.73-1.06,2.6-1.55.4-.24.81-.47,1.21-.69.9-.51,1.82-1,2.76-1.47.43-.23.86-.44,1.3-.65.96-.47,1.93-.93,2.91-1.36.46-.22.93-.42,1.4-.61,1.02-.43,2.05-.85,3.08-1.24.5-.19.99-.38,1.5-.56,1.08-.39,2.16-.76,3.26-1.1.54-.18,1.08-.35,1.63-.5,1.14-.35,2.29-.68,3.46-.96.58-.16,1.16-.3,1.75-.43,1.21-.29,2.42-.54,3.65-.78.62-.12,1.26-.23,1.89-.33.9-.16,1.82-.3,2.74-.43.36-.05.73-.1,1.1-.15.67-.09,1.35-.17,2.03-.23,1.34-.15,2.69-.26,4.05-.33.72-.05,1.44-.09,2.17-.12,1.2-.05,2.4-.07,3.61-.07h.62c.78,0,1.55.02,2.32.04,1.48.05,2.95.12,4.41.25.83.05,1.64.13,2.46.23,1.53.16,3.05.35,4.56.59.8.12,1.58.25,2.37.4.07.02.14.02.21.04,1.57.29,3.13.62,4.67.99.89.21,1.79.43,2.67.68,1.6.43,3.18.9,4.74,1.42.93.3,1.84.62,2.75.96,1.61.58,3.19,1.22,4.75,1.9.94.4,1.86.82,2.77,1.26,1.58.75,3.14,1.55,4.67,2.39.94.51,1.85,1.03,2.76,1.58,1.55.92,3.06,1.89,4.54,2.91.9.62,1.8,1.27,2.67,1.93,1.47,1.09,2.92,2.24,4.31,3.43.83.69,1.64,1.41,2.43,2.14l.13.12c1.37,1.27,2.7,2.59,3.98,3.94.8.85,1.58,1.72,2.35,2.61,1.25,1.44,2.44,2.92,3.57,4.43.72.96,1.42,1.94,2.09,2.94,1.09,1.59,2.11,3.21,3.06,4.88.62,1.06,1.21,2.14,1.76,3.23.88,1.72,1.71,3.49,2.45,5.28.49,1.15.94,2.31,1.37,3.49.67,1.84,1.26,3.71,1.78,5.61.34,1.22.64,2.46.91,3.7.42,1.93.77,3.87,1.03,5.85.18,1.27.31,2.55.41,3.85.16,1.96.24,3.95.24,5.96h-.02Z" fill="none" stroke="#fff" stroke-miterlimit="10" stroke-width="2"/><path d="m157.72,245.45c-.7,3.57-1.67,7.05-2.88,10.42-.36.99-.73,1.96-1.13,2.93-1,2.45-2.14,4.83-3.4,7.14-2.05,3.76-4.42,7.32-7.08,10.64-.21.26-.42.52-.64.77-2.11,2.56-4.4,4.99-6.84,7.23-3.13,2.9-6.52,5.51-10.13,7.81-2.66,1.7-5.43,3.22-8.31,4.57-3.71,1.73-7.59,3.15-11.61,4.24-2.98.8-6.02,1.42-9.14,1.84-2.37.33-4.78.53-7.22.62-.31.01-.63.02-.94.03h-.04c-.53,0-1.06.01-1.6.01h-1.45c-.35-.01-.69-.02-1.04-.04-3.17-.11-6.29-.42-9.34-.92-4.19-.69-8.25-1.74-12.17-3.11-3.08-1.09-6.07-2.37-8.94-3.85-3.97-2.03-7.73-4.42-11.23-7.14-2.78-2.14-5.4-4.48-7.83-7-1.56-1.61-3.05-3.3-4.45-5.05-1.73-2.16-3.34-4.42-4.81-6.78-1.76-2.78-3.32-5.7-4.69-8.73-.36-.79-.7-1.58-1.02-2.38-1.51-3.69-2.72-7.54-3.6-11.52,21.56-6.03,46.91-9.5,74.01-9.5,24.43,0,47.41,2.81,67.5,7.78h.02Z" fill="#fff" stroke="#1e1e1e" stroke-miterlimit="10"/><path d="m130.4,64.41c0,30.21-24.49,54.7-54.69,54.7s-54.7-24.49-54.7-54.7c0-3.2.28-6.34.81-9.39.17-.36.36-.72.53-1.09.4-.78.82-1.56,1.24-2.32.18-.34.38-.68.58-1.02.43-.75.87-1.48,1.34-2.21.2-.32.4-.64.61-.96.45-.71.93-1.41,1.42-2.1.21-.31.42-.6.64-.9.49-.68.99-1.35,1.51-2.01.21-.29.44-.58.67-.86.44-.55.89-1.11,1.37-1.65.07-.09.14-.18.22-.26.23-.28.46-.55.71-.82.55-.63,1.11-1.24,1.68-1.83.25-.26.5-.53.76-.78.58-.6,1.16-1.18,1.76-1.75.26-.26.53-.5.8-.75.61-.58,1.24-1.13,1.86-1.68.28-.24.56-.48.85-.71.65-.55,1.3-1.07,1.96-1.59.3-.23.6-.46.89-.69.68-.52,1.38-1.02,2.08-1.51.31-.23.63-.44.95-.66.72-.49,1.46-.97,2.19-1.42.34-.22.68-.43,1.02-.63.76-.47,1.53-.92,2.32-1.34.36-.21.72-.4,1.09-.6.81-.43,1.63-.85,2.45-1.24.39-.2.78-.38,1.18-.56.86-.4,1.73-.77,2.6-1.14.42-.18.84-.35,1.26-.51.91-.36,1.82-.7,2.75-1.01.45-.16.91-.32,1.37-.45.96-.32,1.93-.62,2.91-.88.49-.14.98-.27,1.48-.4,1.02-.26,2.04-.5,3.08-.71.53-.11,1.06-.21,1.59-.31.76-.15,1.53-.28,2.31-.39.31-.05.62-.09.92-.13.57-.09,1.14-.16,1.71-.21,1.13-.13,2.27-.24,3.41-.31.6-.05,1.21-.09,1.83-.11,1.01-.04,2.02-.06,3.04-.06h.53c.65,0,1.31.01,1.95.04,1.25.04,2.49.11,3.71.23.7.05,1.38.12,2.07.21,1.29.14,2.57.32,3.84.54.67.11,1.33.23,2,.36,17.53,9.11,29.5,27.43,29.5,48.55l.04.02Z" fill="#1e1e1e" stroke="#1e1e1e" stroke-miterlimit="10"/><path d="m165.48,53.57l-6.66,19.98c-.72,2.16-2.24,3.83-4.12,4.78l-72.38,217.12-11.24-3.75,72.38-217.12c-.93-1.89-1.15-4.14-.43-6.3l6.66-19.98c.35-1.04,1.47-1.6,2.5-1.25l12.03,4.01c1.04.35,1.6,1.47,1.25,2.5h0Z" fill="#fff" stroke="#1e1e1e" stroke-miterlimit="10" stroke-width="1.5"/><path d="m108.41,44.19l-1.44,20.93c-.16,2.26-1,4.27-2.23,5.68l-4.43,64.21-9.04-.62,4.43-64.21c-1.03-1.57-1.58-3.67-1.43-5.93l1.44-20.93c.07-1.08.81-1.92,1.65-1.86l9.68.67c.83.06,1.45.99,1.37,2.07h0Z" fill="#fff" stroke="#1e1e1e" stroke-miterlimit="10" stroke-width="1.5"/><path d="m64.3,69.92l2.2,11.06c.24,1.2-.03,2.38-.65,3.32l23.86,120.15-6.22,1.24-23.86-120.15c-.93-.63-1.63-1.62-1.87-2.82l-2.2-11.06c-.11-.57.26-1.13.83-1.25l6.66-1.32c.57-.11,1.13.26,1.25.83Z" fill="#fff" stroke="#1e1e1e" stroke-miterlimit="10" stroke-width="1.5"/><path d="m117.2,239.72l23.4,40.54c-1.37,1.5-2.81,2.94-4.31,4.32-3.13,2.9-6.52,5.51-10.13,7.81-2.65,1.69-5.43,3.22-8.31,4.56-3.71,1.73-7.58,3.16-11.6,4.24-2.98.81-6.03,1.42-9.14,1.84-2.37.33-4.78.54-7.22.62-.31.02-.63.02-.94.03h-.03c-.54.01-1.06.01-1.6.01h-1.46c-.35-.02-.69-.02-1.03-.04-3.17-.11-6.29-.42-9.34-.92-4.19-.69-8.26-1.74-12.17-3.11-3.08-1.09-6.07-2.38-8.94-3.85-3.97-2.03-7.73-4.42-11.23-7.14-1.89-1.46-3.7-3.01-5.44-4.63l25.01-43.32c-16.02-9.18-26.81-26.44-26.81-46.22v-63.44c0-2.21,1.58-4.11,3.76-4.5,14.06-2.49,31.01-4.39,50.22-4.34,18.59.04,35.03,1.91,48.75,4.34,2.18.39,3.76,2.29,3.76,4.5v63.44c0,19.11-10.07,35.88-25.2,45.26h0Z" fill="#1e1e1e"/></svg>