<?xml version="1.0" encoding="UTF-8"?>
<svg id="Calque_2" data-name="Calque 2" xmlns="http://www.w3.org/2000/svg" xmlns:xlink="http://www.w3.org/1999/xlink" viewBox="0 0 608.74 101.69">
  <defs>
    <style>
      .cls-1 {
        fill: none;
        stroke: #008758;
        stroke-miterlimit: 10;
        stroke-width: .84px;
      }

      .cls-2 {
        fill: #0e6159;
      }

      .cls-2, .cls-3, .cls-4, .cls-5, .cls-6, .cls-7, .cls-8 {
        stroke-width: 0px;
      }

      .cls-3 {
        fill: #1a9dd9;
      }

      .cls-4 {
        fill: #1e1e1e;
      }

      .cls-5 {
        fill: #fcbe12;
      }

      .cls-6 {
        fill: #008758;
      }

      .cls-7 {
        fill: #009640;
      }

      .cls-8 {
        fill: url(#Dégradé_sans_nom_25);
      }
    </style>
    <linearGradient id="Dégradé_sans_nom_25" data-name="Dégradé sans nom 25" x1="265.94" y1="20.85" x2="296.13" y2="91.09" gradientUnits="userSpaceOnUse">
      <stop offset="0" stop-color="#179cd9"/>
      <stop offset=".14" stop-color="#1a9dd9"/>
      <stop offset=".27" stop-color="#26a2db"/>
      <stop offset=".4" stop-color="#3aabde"/>
      <stop offset=".53" stop-color="#55b6e3"/>
      <stop offset=".66" stop-color="#79c6e9"/>
      <stop offset=".79" stop-color="#a5d8f0"/>
      <stop offset=".91" stop-color="#d7eef8"/>
      <stop offset="1" stop-color="#fff"/>
    </linearGradient>
  </defs>
  <g id="Calque_5" data-name="Calque 5">
    <g>
      <g>
        <path class="cls-3" d="M24.33,49.92h9.92v14.41c-3.89,2.59-10.32,4.49-15.3,4.49-10.97,0-18.94-7.58-18.94-17.95s8.28-17.85,19.69-17.85c5.43,0,11.37,2.09,15.1,5.38l-6.53,7.93c-2.34-2.24-5.73-3.69-8.62-3.69-4.49,0-7.78,3.49-7.78,8.23s3.34,8.33,7.88,8.33c1.2,0,2.89-.45,4.59-1.15v-8.13Z"/>
        <path class="cls-3" d="M70.09,42.2c0,3.44-2.29,6.38-5.88,7.48,4.19.95,6.93,4.44,6.93,8.82,0,5.98-5.53,9.82-14.06,9.82h-18.54v-34.95h17.7c8.42,0,13.86,3.49,13.86,8.82ZM58.23,44.29c0-1.5-1.05-2.44-2.64-2.44h-5.53v4.98h5.53c1.6,0,2.64-1,2.64-2.54ZM59.13,57.05c0-1.55-1.4-2.54-3.54-2.54h-5.53v5.33h5.53c2.14,0,3.54-1.1,3.54-2.79Z"/>
        <path class="cls-3" d="M104.19,33.37v8.77h-18v4.29h16.35v8.77h-16.35v4.34h18.45v8.77h-30.01v-34.95h29.56Z"/>
        <path class="cls-3" d="M123.19,41.7c-1.3,0-2.14.4-2.14,1.45,0,4.39,18.1,1.65,18.1,14.31,0,7.78-6.83,11.22-14.71,11.22-6.08,0-12.86-2.04-17.5-5.58l4.29-8.67c3.59,2.99,9.77,5.43,13.31,5.43,1.69,0,2.79-.55,2.79-1.79,0-4.54-18.1-1.55-18.1-13.81,0-6.98,5.88-11.37,14.96-11.37,5.53,0,11.27,1.64,15.2,4.14l-4.19,8.77c-3.54-1.94-8.97-4.09-12.01-4.09Z"/>
        <path class="cls-3" d="M156.29,41.7c-1.3,0-2.14.4-2.14,1.45,0,4.39,18.1,1.65,18.1,14.31,0,7.78-6.83,11.22-14.71,11.22-6.08,0-12.86-2.04-17.5-5.58l4.29-8.67c3.59,2.99,9.77,5.43,13.31,5.43,1.69,0,2.79-.55,2.79-1.79,0-4.54-18.1-1.55-18.1-13.81,0-6.98,5.88-11.37,14.96-11.37,5.53,0,11.27,1.64,15.2,4.14l-4.19,8.77c-3.54-1.94-8.97-4.09-12.01-4.09Z"/>
        <path class="cls-3" d="M186.8,33.37v34.95h-11.57v-34.95h11.57Z"/>
        <path class="cls-3" d="M215.56,63.38h-13.11l-1.79,4.94h-11.86l14.76-34.95h11.86l14.21,34.95h-12.31l-1.74-4.94ZM212.72,55.11l-3.59-10.22-3.69,10.22h7.28Z"/>
      </g>
      <g>
        <path class="cls-8" d="M301.89,27.79v46.12c0,.33,0,.65-.02.98-.02.59-.07,1.18-.14,1.76-.07.59-.16,1.17-.28,1.75-.22,1.14-.53,2.25-.92,3.32-.11.31-.23.63-.36.93-.32.78-.68,1.54-1.08,2.28-.65,1.2-1.41,2.34-2.26,3.39-.07.08-.13.17-.2.25-.26.32-.53.63-.81.93-.44.48-.9.94-1.37,1.38-1,.92-2.08,1.76-3.23,2.49-.85.54-1.73,1.03-2.65,1.46-1.18.55-2.42,1.01-3.7,1.35-.95.26-1.92.45-2.92.59-.75.1-1.52.17-2.3.2-.1,0-.2,0-.3,0h-.01c-.17,0-.34,0-.51,0h-.06c-.14,0-.27,0-.41,0-.11,0-.22,0-.33-.01-1.01-.03-2-.13-2.98-.29-1.34-.22-2.63-.55-3.88-.99-.98-.35-1.93-.76-2.85-1.23-1.27-.65-2.46-1.41-3.58-2.28-.6-.46-1.18-.96-1.73-1.48-.26-.25-.51-.5-.76-.76-.5-.51-.97-1.05-1.42-1.61-.55-.69-1.06-1.41-1.53-2.16-.56-.89-1.06-1.82-1.5-2.78-.11-.25-.22-.5-.33-.76-.48-1.18-.87-2.41-1.15-3.67-.21-.92-.36-1.87-.45-2.84-.01-.14-.02-.28-.04-.42-.05-.58-.07-1.18-.07-1.77V27.79c0-.18,0-.36,0-.55,0-.19.01-.37.02-.55.02-.35.04-.71.07-1.06.01-.17.03-.35.05-.52.04-.34.08-.67.14-1.01.02-.16.05-.33.08-.49.06-.32.12-.64.2-.96.03-.15.07-.3.11-.45.07-.31.16-.61.25-.91.04-.14.08-.28.13-.42.09-.29.19-.58.29-.86.04-.13.09-.27.14-.39.1-.28.21-.55.33-.82.05-.12.1-.24.16-.37.12-.26.24-.52.36-.78.05-.12.11-.23.17-.35.13-.25.26-.5.4-.74.06-.11.12-.22.18-.32.14-.24.28-.47.43-.7.06-.1.13-.2.19-.31.14-.23.3-.45.45-.67.07-.1.13-.19.2-.29.16-.22.31-.43.48-.64.07-.09.14-.18.22-.27.14-.18.29-.35.44-.53.02-.03.05-.06.07-.08.07-.09.15-.17.23-.26.17-.2.35-.39.53-.58.08-.08.16-.17.24-.25.18-.19.37-.38.56-.56.08-.08.17-.16.26-.24.19-.18.39-.36.59-.53.09-.08.18-.15.27-.23.21-.17.41-.34.63-.51.1-.07.19-.15.29-.22.22-.17.44-.33.66-.48.1-.07.2-.14.3-.21.23-.16.46-.31.7-.45.11-.07.22-.14.33-.2.24-.15.49-.29.74-.43.12-.07.23-.13.35-.19.26-.14.52-.27.78-.4.12-.06.25-.12.38-.18.27-.13.55-.25.83-.36.13-.06.27-.11.4-.16.29-.11.58-.22.88-.32.14-.05.29-.1.44-.14.31-.1.62-.2.93-.28.16-.05.31-.09.47-.13.32-.08.65-.16.98-.23.17-.04.34-.07.51-.1.24-.05.49-.09.74-.12.1-.02.2-.03.29-.04.18-.03.36-.05.55-.07.36-.04.72-.08,1.09-.1.19-.02.39-.03.58-.03.32-.01.65-.02.97-.02.06,0,.11,0,.17,0,.21,0,.42,0,.62.01.4.01.79.04,1.18.07.22.02.44.04.66.07.41.05.82.1,1.23.17.22.04.42.07.64.12.02,0,.04,0,.06.01.42.08.84.18,1.25.29.24.06.48.13.72.2.43.12.85.26,1.27.41.25.09.49.18.74.28.43.17.86.36,1.28.55.25.12.5.24.75.37.43.22.84.45,1.25.7.25.15.5.3.74.46.42.27.82.55,1.22.85.24.18.48.37.72.56.4.32.78.65,1.16,1,.22.2.44.41.65.63l.04.04c.37.37.72.75,1.07,1.15.22.25.43.5.63.76.34.42.65.85.96,1.29.19.28.38.57.56.86.29.46.57.94.82,1.42.17.31.32.62.47.94.24.5.46,1.02.66,1.54.13.34.25.68.37,1.02.18.54.34,1.08.48,1.64.09.36.17.72.24,1.08.11.56.21,1.13.28,1.71.05.37.08.75.11,1.12.04.57.07,1.15.07,1.74Z"/>
        <path class="cls-1" d="M306.19,25.63v50.42c0,.36,0,.72-.02,1.07-.03.65-.09,1.29-.17,1.92-.08.65-.19,1.28-.33,1.91-.27,1.25-.63,2.46-1.09,3.63-.13.34-.28.68-.43,1.02-.38.85-.81,1.68-1.28,2.49-.77,1.31-1.67,2.55-2.68,3.71-.08.09-.16.18-.24.27-.31.35-.63.68-.96,1.01-.52.53-1.06,1.03-1.63,1.51-1.19,1.01-2.47,1.92-3.83,2.72-1.01.59-2.06,1.12-3.14,1.59-1.4.6-2.87,1.1-4.39,1.48-1.13.28-2.28.5-3.46.64-.9.11-1.81.19-2.73.22-.12,0-.24,0-.35,0h-.01c-.2,0-.4,0-.6,0h-.07c-.16,0-.32,0-.48,0-.13,0-.26,0-.39-.01-1.2-.04-2.38-.15-3.53-.32-1.59-.24-3.12-.61-4.6-1.08-1.17-.38-2.3-.83-3.38-1.34-1.5-.71-2.92-1.54-4.25-2.49-.72-.51-1.4-1.05-2.06-1.61-.31-.27-.61-.54-.91-.83-.59-.56-1.15-1.15-1.68-1.76-.66-.75-1.26-1.54-1.82-2.36-.67-.97-1.26-1.99-1.77-3.04-.13-.27-.26-.55-.39-.83-.57-1.29-1.03-2.63-1.36-4.02-.24-1.01-.42-2.05-.53-3.1-.02-.15-.03-.31-.04-.46-.05-.64-.08-1.29-.08-1.94V25.63c0-.2,0-.4,0-.6,0-.2.01-.4.02-.61.02-.39.05-.77.09-1.15.02-.19.04-.38.06-.57.04-.37.1-.74.16-1.1.03-.18.06-.36.1-.53.07-.35.15-.7.23-1.05.04-.17.08-.33.13-.5.09-.33.19-.67.29-.99.05-.16.1-.31.15-.46.11-.32.22-.63.35-.94.05-.15.11-.29.17-.43.12-.3.25-.6.39-.89.06-.14.12-.27.19-.4.14-.29.28-.57.43-.85.06-.13.13-.25.2-.38.15-.27.31-.54.47-.81.07-.12.15-.24.22-.35.16-.26.33-.52.51-.77.08-.11.15-.22.23-.33.17-.25.35-.49.54-.73.08-.11.16-.21.24-.31.19-.24.37-.47.57-.7.08-.1.17-.2.26-.3.17-.19.34-.39.52-.57.03-.03.05-.06.08-.09.09-.1.17-.19.27-.28.21-.22.42-.43.63-.64.09-.09.19-.18.29-.27.22-.21.44-.41.67-.61.1-.09.2-.18.3-.26.23-.2.47-.39.7-.58.11-.08.21-.17.32-.25.24-.19.49-.37.74-.55.11-.08.23-.16.34-.24.26-.18.52-.36.79-.53.12-.08.24-.15.36-.23.27-.17.55-.34.83-.5.13-.08.26-.15.39-.22.29-.16.58-.32.88-.47.14-.07.27-.14.41-.21.31-.15.62-.3.93-.43.15-.07.3-.13.45-.2.33-.14.65-.27.98-.4.16-.06.32-.12.48-.18.34-.12.69-.24,1.04-.35.17-.06.34-.11.52-.16.36-.11.73-.22,1.1-.31.19-.05.37-.09.56-.14.38-.09.77-.17,1.16-.25.2-.04.4-.07.6-.11.29-.05.58-.1.87-.14.12-.02.23-.03.35-.05.22-.03.43-.05.65-.07.43-.05.86-.08,1.29-.11.23-.02.46-.03.69-.04.38-.01.77-.02,1.15-.02.07,0,.13,0,.2,0,.25,0,.49,0,.74.01.47.01.94.04,1.41.08.26.02.52.04.78.07.49.05.97.11,1.45.19.26.04.5.08.76.13.02,0,.05,0,.07.01.5.09,1,.2,1.49.32.28.07.57.14.85.22.51.14,1.01.29,1.51.45.3.1.59.2.88.31.51.19,1.02.39,1.51.61.3.13.59.26.88.4.51.24,1,.49,1.49.76.3.16.59.33.88.51.49.29.98.6,1.45.93.29.2.57.4.85.61.47.35.93.71,1.37,1.09.26.22.52.45.77.68l.04.04c.44.4.86.82,1.27,1.26.26.27.51.55.75.83.4.46.78.93,1.14,1.41.23.31.45.62.67.94.35.51.67,1.03.98,1.56.2.34.38.68.56,1.03.28.55.55,1.11.78,1.68.16.37.3.74.44,1.11.22.59.4,1.18.57,1.79.11.39.2.79.29,1.18.13.61.24,1.24.33,1.86.06.41.1.81.13,1.23.05.63.08,1.26.08,1.9Z"/>
        <path class="cls-7" d="M301.45,78.39c-.22,1.14-.53,2.25-.92,3.32-.11.31-.23.63-.36.93-.32.78-.68,1.54-1.08,2.28-.65,1.2-1.41,2.34-2.26,3.39-.07.08-.13.17-.2.25-.67.82-1.4,1.59-2.18,2.31-1,.92-2.08,1.76-3.23,2.49-.85.54-1.73,1.03-2.65,1.46-1.18.55-2.42,1.01-3.7,1.35-.95.26-1.92.45-2.92.59-.75.1-1.52.17-2.3.2-.1,0-.2,0-.3,0h-.01c-.17,0-.34,0-.51,0h-.06c-.14,0-.27,0-.41,0-.11,0-.22,0-.33-.01-1.01-.03-2-.13-2.98-.29-1.34-.22-2.63-.55-3.88-.99-.98-.35-1.93-.76-2.85-1.23-1.27-.65-2.46-1.41-3.58-2.28-.89-.68-1.72-1.43-2.5-2.23-.5-.51-.97-1.05-1.42-1.61-.55-.69-1.06-1.41-1.53-2.16-.56-.89-1.06-1.82-1.5-2.78-.11-.25-.22-.5-.33-.76-.48-1.18-.87-2.41-1.15-3.67,6.88-1.92,14.96-3.03,23.6-3.03,7.79,0,15.12.9,21.53,2.48Z"/>
        <path class="cls-5" d="M292.74,20.65c0,9.63-7.81,17.44-17.44,17.44s-17.44-7.81-17.44-17.44c0-1.02.09-2.02.26-2.99.05-.12.11-.23.17-.35.13-.25.26-.5.4-.74.06-.11.12-.22.18-.32.14-.24.28-.47.43-.7.06-.1.13-.2.19-.31.14-.23.3-.45.45-.67.07-.1.13-.19.2-.29.16-.22.31-.43.48-.64.07-.09.14-.18.22-.27.14-.18.29-.35.44-.53.02-.03.05-.06.07-.08.07-.09.15-.17.23-.26.17-.2.35-.39.53-.58.08-.08.16-.17.24-.25.18-.19.37-.38.56-.56.08-.08.17-.16.26-.24.19-.18.39-.36.59-.53.09-.08.18-.15.27-.23.21-.17.41-.34.63-.51.1-.07.19-.15.29-.22.22-.17.44-.33.66-.48.1-.07.2-.14.3-.21.23-.16.46-.31.7-.45.11-.07.22-.14.33-.2.24-.15.49-.29.74-.43.12-.07.23-.13.35-.19.26-.14.52-.27.78-.4.12-.06.25-.12.38-.18.27-.13.55-.25.83-.36.13-.06.27-.11.4-.16.29-.11.58-.22.88-.32.14-.05.29-.1.44-.14.31-.1.62-.2.93-.28.16-.05.31-.09.47-.13.32-.08.65-.16.98-.23.17-.04.34-.07.51-.1.24-.05.49-.09.74-.12.1-.02.2-.03.29-.04.18-.03.36-.05.55-.07.36-.04.72-.08,1.09-.1.19-.02.39-.03.58-.03.32-.01.65-.02.97-.02.06,0,.11,0,.17,0,.21,0,.42,0,.62.01.4.01.79.04,1.18.07.22.02.44.04.66.07.41.05.82.1,1.23.17.22.04.42.07.64.12,5.59,2.9,9.41,8.75,9.41,15.49Z"/>
        <g>
          <path class="cls-2" d="M303.93,17.19l-2.12,6.37c-.23.69-.72,1.22-1.31,1.53l-23.09,69.25-3.58-1.19,23.09-69.25c-.3-.6-.37-1.32-.14-2.01l2.12-6.37c.11-.33.47-.51.8-.4l3.84,1.28c.33.11.51.47.4.8Z"/>
          <path class="cls-2" d="M285.73,14.2l-.46,6.68c-.05.72-.32,1.36-.71,1.81l-1.41,20.48-2.88-.2,1.41-20.48c-.33-.5-.51-1.17-.46-1.89l.46-6.68c.02-.35.26-.61.53-.59l3.09.21c.27.02.46.31.44.66Z"/>
          <path class="cls-2" d="M271.66,22.41l.7,3.53c.08.38,0,.76-.21,1.06l7.61,38.32-1.98.39-7.61-38.32c-.3-.2-.52-.52-.6-.9l-.7-3.53c-.04-.18.08-.36.27-.4l2.12-.42c.18-.04.36.08.4.27Z"/>
        </g>
        <path class="cls-4" d="M288.53,76.57l7.47,12.93c-.44.48-.9.94-1.38,1.38-1,.93-2.08,1.76-3.23,2.49-.85.54-1.74,1.03-2.65,1.46-1.18.55-2.42,1-3.7,1.35-.95.25-1.92.46-2.91.59-.76.1-1.53.17-2.3.19-.1,0-.2,0-.3,0h0c-.17,0-.34,0-.51,0h-.06c-.14,0-.28,0-.4,0-.12,0-.23,0-.34,0-1-.03-2-.13-2.98-.3-1.33-.22-2.63-.56-3.88-.99-.98-.35-1.93-.76-2.85-1.23-1.27-.65-2.46-1.41-3.58-2.28-.6-.46-1.18-.95-1.73-1.48l7.97-13.81c-5.11-2.93-8.56-8.44-8.56-14.74v-20.23c0-.71.51-1.32,1.21-1.43,4.48-.79,9.89-1.4,16.01-1.39,5.92.02,11.17.62,15.55,1.39.69.12,1.2.73,1.2,1.43v20.23c0,6.09-3.21,11.44-8.04,14.44Z"/>
      </g>
      <g>
        <path class="cls-6" d="M357.6,33.52v8.77h-18v4.29h16.35v8.77h-16.35v4.34h18.44v8.77h-30.01v-34.95h29.56Z"/>
        <path class="cls-6" d="M372.1,33.52l13.81,17.95v-17.95h10.47v34.95h-9.67l-13.76-17.85v17.85h-10.52v-34.95h9.67Z"/>
        <path class="cls-6" d="M415.52,41.85c-1.3,0-2.14.4-2.14,1.45,0,4.39,18.1,1.64,18.1,14.31,0,7.78-6.83,11.22-14.71,11.22-6.08,0-12.86-2.04-17.5-5.58l4.29-8.67c3.59,2.99,9.77,5.43,13.31,5.43,1.69,0,2.79-.55,2.79-1.79,0-4.54-18.1-1.55-18.1-13.81,0-6.98,5.88-11.37,14.95-11.37,5.53,0,11.27,1.65,15.2,4.14l-4.19,8.77c-3.54-1.94-8.97-4.09-12.01-4.09Z"/>
        <path class="cls-6" d="M464.03,33.52v8.77h-18v4.29h16.35v8.77h-16.35v4.34h18.44v8.77h-30.01v-34.95h29.56Z"/>
        <path class="cls-6" d="M481.08,33.52l7.63,18.25,7.63-18.25h12.21v34.95h-10.07v-19.14l-5.98,15.75h-7.58l-5.98-15.75v19.14h-10.07v-34.95h12.21Z"/>
        <path class="cls-6" d="M545.09,42.35c0,3.44-2.29,6.38-5.88,7.48,4.19.95,6.93,4.44,6.93,8.82,0,5.98-5.53,9.82-14.06,9.82h-18.54v-34.95h17.7c8.43,0,13.86,3.49,13.86,8.82ZM533.22,44.44c0-1.5-1.05-2.44-2.64-2.44h-5.53v4.99h5.53c1.59,0,2.64-1,2.64-2.54ZM534.12,57.2c0-1.55-1.4-2.54-3.54-2.54h-5.53v5.33h5.53c2.14,0,3.54-1.1,3.54-2.79Z"/>
        <path class="cls-6" d="M561.19,33.52v25.32h14.56v9.62h-26.12v-34.95h11.57Z"/>
        <path class="cls-6" d="M608.3,33.52v8.77h-18v4.29h16.35v8.77h-16.35v4.34h18.44v8.77h-30.01v-34.95h29.56Z"/>
      </g>
    </g>
  </g>
</svg>